# xmcd
#
# Track frame offsets: 
#        150
#        15980
#        29555
#        50867
#        67253
#        88848
#        106382
#        121281
#        145705
#        157991
#        173466
#
# Disc length: 2460 seconds
#
# Revision: 0
# Processed by: cddbd v1.5.2PL0 Copyright (c) Steve Scherf et al.
# Submitted via: ExactAudioCopy v0.95a5
#
DISCID=90099a0b
DTITLE=ROSE TATTOO - Blood Brothers
DYEAR=2007
DGENRE=Rock
TTITLE0=Black Eyed Bruiser
TTITLE1=Slipping Away
TTITLE2=Once In A Lifetime
TTITLE3=1854
TTITLE4=City Blues
TTITLE5=Sweet Mea
TTITLE6=Man About Town
TTITLE7=Creeper
TTITLE8=Standover Man
TTITLE9=Nothing To Lose
TTITLE10=Lubricated
EXTD=
EXTT0=
EXTT1=
EXTT2=
EXTT3=
EXTT4=
EXTT5=
EXTT6=
EXTT7=
EXTT8=
EXTT9=
EXTT10=
PLAYORDER=
